<svg width="29" height="32" viewBox="0 0 31 35" fill="none" xmlns="http://www.w3.org/2000/svg">
    <path d="M8.45455 8.92424C8.45455 8.14602 9.08542 7.51515 9.86364 7.51515H23.0152C23.7934 7.51515 24.4242 8.14602 24.4242 8.92424C24.4242 9.70246 23.7934 10.3333 23.0152 10.3333H9.86364C9.08542 10.3333 8.45455 9.70246 8.45455 8.92424Z" fill="currentColor"/>
    <path d="M9.86364 13.1515C9.08542 13.1515 8.45455 13.7824 8.45455 14.5606C8.45455 15.3388 9.08542 15.9697 9.86364 15.9697H19.2576C20.0358 15.9697 20.6667 15.3388 20.6667 14.5606C20.6667 13.7824 20.0358 13.1515 19.2576 13.1515H9.86364Z" fill="currentColor"/>
    <path fill-rule="evenodd" clip-rule="evenodd" d="M8.92424 0C3.99552 0 0 3.99552 0 8.92424V27.7121C0 31.6032 3.15436 34.7576 7.04545 34.7576H27.7121C29.528 34.7576 31 33.2855 31 31.4697V3.28788C31 1.47203 29.528 0 27.7121 0H8.92424ZM28.1818 20.6667V3.28788C28.1818 3.02847 27.9715 2.81818 27.7121 2.81818H8.92424C5.55196 2.81818 2.81818 5.55196 2.81818 8.92424V22.0752C3.9957 21.1908 5.45937 20.6667 7.04545 20.6667H28.1818ZM28.1818 23.4848H7.04545C4.7108 23.4848 2.81818 25.3775 2.81818 27.7121C2.81818 30.0468 4.7108 31.9394 7.04545 31.9394H27.7121C27.9715 31.9394 28.1818 31.7291 28.1818 31.4697V23.4848Z" fill="currentColor"/>
</svg>
