<svg width="21" height="20" viewBox="0 0 21 20" fill="none" xmlns="http://www.w3.org/2000/svg">
    <path d="M4.66388 2.06068C3.31591 2.21133 2.23694 3.27522 2.08098 4.60867C1.66204 8.19068 1.66204 11.8093 2.08098 15.3913C2.23694 16.7248 3.31591 17.7887 4.66388 17.9393C8.17013 18.3312 11.7975 18.3312 15.3037 17.9393C16.6517 17.7887 17.7307 16.7248 17.8866 15.3913C18.1876 12.8176 18.2724 10.2249 18.1408 7.64046C18.1374 7.57372 18.1623 7.50862 18.2096 7.46136L19.4331 6.23784C19.5747 6.09622 19.8167 6.18478 19.8317 6.38449C20.0626 9.45269 19.9992 12.5375 19.6414 15.5966C19.3884 17.7602 17.6512 19.4547 15.5 19.6952C11.8633 20.1016 8.10431 20.1016 4.46764 19.6952C2.31644 19.4547 0.579233 17.7602 0.326173 15.5966C-0.108724 11.8782 -0.108724 8.12181 0.326173 4.40343C0.579233 2.23977 2.31644 0.545267 4.46764 0.304838C8.10431 -0.101613 11.8633 -0.101613 15.5 0.304838C16.2576 0.389518 16.9639 0.654569 17.5721 1.05696C17.6918 1.13614 17.7037 1.30438 17.6022 1.40585L16.6565 2.35153C16.5792 2.42888 16.4592 2.44189 16.3628 2.39023C16.0407 2.21768 15.6829 2.10305 15.3037 2.06068C11.7975 1.6688 8.17013 1.6688 4.66388 2.06068Z" fill="white"/>
    <path d="M20.6201 2.96864C20.9651 2.62365 20.9651 2.06432 20.6201 1.71934C20.2752 1.37436 19.7158 1.37436 19.3708 1.71934L9.39486 11.6953L6.48596 8.78643C6.14098 8.44145 5.58165 8.44145 5.23666 8.78643C4.89168 9.13141 4.89168 9.69074 5.23666 10.0357L8.77021 13.5693C9.11519 13.9143 9.67452 13.9143 10.0195 13.5693L20.6201 2.96864Z" fill="white"/>
</svg>
