<svg width="20" height="18" viewBox="0 0 20 18" fill="none" xmlns="http://www.w3.org/2000/svg">
    <path fill-rule="evenodd" clip-rule="evenodd" d="M20 8.99998C20 9.29444 19.8404 9.56575 19.583 9.70875L17.1156 11.0795C12.2384 13.7891 7.09702 15.9931 1.77167 17.6573L1.05266 17.882C0.806462 17.9589 0.538352 17.9141 0.330539 17.7614C0.122724 17.6086 -7.5555e-07 17.366 -7.44275e-07 17.1081L-4.72556e-07 10.8919C-4.54078e-07 10.4691 0.324773 10.1174 0.746152 10.0836L0.991912 10.064C3.31781 9.87791 5.62581 9.52201 7.89751 8.99964C5.59391 8.47002 3.25299 8.11159 0.893947 7.92783L0.747844 7.91645C0.325746 7.88357 -3.25668e-07 7.53146 -3.07161e-07 7.10809L-3.5442e-08 0.891871C-2.41673e-08 0.633937 0.122725 0.391392 0.33054 0.238608C0.538353 0.0858248 0.806463 0.0410333 1.05265 0.117968L1.77166 0.342656C7.09702 2.00683 12.2384 4.21087 17.1156 6.92043L19.583 8.2912C19.8404 8.43421 20 8.70552 20 8.99998ZM17.5196 8.99998L16.328 8.33799C11.6493 5.73871 6.72267 3.61404 1.62162 1.99553L1.62162 6.36167C4.78928 6.64737 7.92247 7.23798 10.9776 8.12558L11.3073 8.22136C11.6539 8.32207 11.8922 8.6398 11.8919 9.00077C11.8915 9.36173 11.6526 9.679 11.3058 9.77903L10.8835 9.90082C7.85818 10.7734 4.75679 11.355 1.62162 11.6378L1.62162 16.0044C6.72266 14.3859 11.6493 12.2613 16.328 9.66198L17.5196 8.99998Z" fill="white"/>
</svg>
