<svg width="31" height="30" viewBox="0 0 31 30" fill="none" xmlns="http://www.w3.org/2000/svg">
    <path d="M30.948 11.1976C30.8502 10.9145 30.6724 10.6658 30.4362 10.4817C30.1999 10.2976 29.9153 10.1861 29.6168 10.1605L20.8093 8.87579L16.8622 0.873182C16.7354 0.611478 16.5375 0.390769 16.2911 0.236338C16.0448 0.0819067 15.7599 0 15.4691 0C15.1783 0 14.8934 0.0819067 14.647 0.236338C14.4006 0.390769 14.2027 0.611478 14.076 0.873182L10.1288 8.86031L1.32133 10.1605C1.03485 10.2013 0.765517 10.3215 0.543899 10.5075C0.322281 10.6936 0.15725 10.938 0.0675342 11.2131C-0.0145893 11.4819 -0.0219589 11.7681 0.0462163 12.0408C0.114391 12.3135 0.255538 12.5624 0.454508 12.761L6.84731 18.9526L5.29941 27.7446C5.23692 28.0363 5.26003 28.3398 5.36595 28.6186C5.47187 28.8974 5.65611 29.1397 5.89648 29.3163C6.13686 29.4929 6.42314 29.5963 6.72089 29.6141C7.01864 29.6318 7.31517 29.5631 7.57482 29.4163L15.4691 25.2835L23.3633 29.4163C23.5806 29.5389 23.8259 29.6029 24.0754 29.6021C24.4032 29.6032 24.723 29.5003 24.9886 29.308C25.2288 29.136 25.4147 28.8988 25.5244 28.6245C25.6341 28.3502 25.663 28.0503 25.6078 27.7601L24.0599 18.9681L30.4527 12.7765C30.6762 12.5871 30.8413 12.3383 30.929 12.0588C31.0167 11.7793 31.0233 11.4807 30.948 11.1976ZM21.4285 17.3892C21.2493 17.5632 21.1149 17.778 21.0367 18.0151C20.9586 18.2523 20.939 18.5049 20.9796 18.7513L22.0941 25.2525L16.274 22.1567C16.0478 22.0448 15.7988 21.9866 15.5465 21.9866C15.2941 21.9866 15.0452 22.0448 14.819 22.1567L8.99888 25.2525L10.1134 18.7513C10.154 18.5049 10.1344 18.2523 10.0562 18.0151C9.97803 17.778 9.84363 17.5632 9.66447 17.3892L5.02079 12.7455L11.5374 11.8013C11.7882 11.7664 12.0266 11.6706 12.2317 11.5221C12.4367 11.3737 12.6023 11.1773 12.7138 10.95L15.4691 5.05249L18.3791 10.9654C18.4906 11.1927 18.6562 11.3892 18.8613 11.5376C19.0664 11.6861 19.3048 11.7819 19.5555 11.8168L26.0721 12.761L21.4285 17.3892Z" fill="currentColor"/>
</svg>
