<svg width="19" height="20" viewBox="0 0 19 20" fill="none" xmlns="http://www.w3.org/2000/svg">
    <path fill-rule="evenodd" clip-rule="evenodd" d="M13.5851 0.251051C13.4243 0.0903059 13.2063 0 12.979 0C12.7516 0 12.5336 0.0903059 12.3729 0.251051L1.86729 10.7566C1.7596 10.8643 1.68255 10.9988 1.64406 11.1461L0.501207 15.5215C0.424304 15.8159 0.509263 16.129 0.724434 16.3442C0.939605 16.5593 1.25273 16.6443 1.54715 16.5674L5.92249 15.4245C6.06984 15.386 6.20428 15.309 6.31196 15.2013L16.8175 4.69572C17.1523 4.36099 17.1523 3.81827 16.8175 3.48354L13.5851 0.251051ZM3.24393 11.8044L12.979 2.06933L14.9993 4.08963L5.26423 13.8247L2.52964 14.539L3.24393 11.8044Z" fill="currentColor"/>
    <path d="M0.857143 18.2857C0.383756 18.2857 0 18.6695 0 19.1429C0 19.6162 0.383756 20 0.857143 20H18C18.4734 20 18.8571 19.6162 18.8571 19.1429C18.8571 18.6695 18.4734 18.2857 18 18.2857H0.857143Z" fill="currentColor"/>
</svg>
