<svg width="31" height="31" viewBox="0 0 31 31" fill="none" xmlns="http://www.w3.org/2000/svg">
    <path fill-rule="evenodd" clip-rule="evenodd" d="M30.7986 5.10936C31.1119 5.5792 31.0597 6.21769 30.642 6.63132L15.66 21.4674C15.5065 21.6194 15.3147 21.7282 15.1046 21.7826L8.86497 23.3965C8.66146 23.4492 8.45169 23.4481 8.25459 23.3985C8.04505 23.3456 7.84985 23.2379 7.69173 23.0813C7.38487 22.7774 7.26371 22.3352 7.37338 21.9195L9.0032 15.7406C9.05123 15.5585 9.14135 15.3787 9.26601 15.2376L24.3035 0.354536C24.4351 0.224187 24.5937 0.126631 24.7662 0.0671907C24.8942 0.0231187 25.0298 0 25.1678 0C25.492 0 25.8029 0.12753 26.0322 0.354536L30.642 4.91947C30.7016 4.97856 30.7539 5.04224 30.7986 5.10936ZM28.049 5.77539L25.1678 2.92231L11.2847 16.6702L10.2661 20.532L14.1659 19.5233L28.049 5.77539Z" fill="currentColor"/>
    <path d="M27.8429 24.0645C28.2885 20.2917 28.4303 16.4926 28.2683 12.703C28.2605 12.5216 28.3294 12.3451 28.4591 12.2166L30.0617 10.6296C30.2588 10.4345 30.5955 10.5584 30.6139 10.8337C30.9153 15.336 30.801 19.8589 30.2711 24.3457C29.8856 27.61 27.2382 30.1681 23.9589 30.531C18.309 31.1563 12.4688 31.1563 6.81892 30.531C3.53963 30.1681 0.892256 27.61 0.506717 24.3457C-0.168906 18.6254 -0.168906 12.8466 0.506717 7.12627C0.892255 3.86202 3.53963 1.30389 6.81892 0.940951C11.1049 0.46659 15.5005 0.35208 19.8394 0.597421C20.119 0.613233 20.2465 0.948315 20.0484 1.14444L18.4307 2.74637C18.3025 2.87338 18.1266 2.94159 17.9453 2.93554C14.3166 2.81434 10.6633 2.95146 7.09046 3.34689C4.92263 3.58682 3.18607 5.28084 2.9349 7.4075C2.28134 12.941 2.28134 18.531 2.9349 24.0645C3.18607 26.1911 4.92263 27.8851 7.09046 28.1251C12.5599 28.7304 18.2179 28.7304 23.6874 28.1251C25.8552 27.8851 27.5917 26.1911 27.8429 24.0645Z" fill="currentColor"/>
</svg>
