<svg width="24" height="20" viewBox="0 0 24 20" fill="none" xmlns="http://www.w3.org/2000/svg">
    <path d="M13.2941 10.2588C13.9219 9.71545 14.4254 9.04339 14.7704 8.28826C15.1155 7.53313 15.2941 6.7126 15.2941 5.88235C15.2941 4.32226 14.6744 2.82606 13.5712 1.7229C12.4681 0.619746 10.9719 0 9.41177 0C7.85167 0 6.35547 0.619746 5.25231 1.7229C4.14916 2.82606 3.52941 4.32226 3.52941 5.88235C3.5294 6.7126 3.708 7.53313 4.05309 8.28826C4.39818 9.04339 4.90167 9.71545 5.52941 10.2588C3.88252 11.0046 2.48525 12.2089 1.50468 13.7277C0.524112 15.2465 0.00173159 17.0157 0 18.8235C0 19.1355 0.123949 19.4348 0.34458 19.6554C0.565211 19.8761 0.864451 20 1.17647 20C1.48849 20 1.78773 19.8761 2.00836 19.6554C2.22899 19.4348 2.35294 19.1355 2.35294 18.8235C2.35294 16.9514 3.09664 15.156 4.42042 13.8322C5.74421 12.5084 7.53965 11.7647 9.41177 11.7647C11.2839 11.7647 13.0793 12.5084 14.4031 13.8322C15.7269 15.156 16.4706 16.9514 16.4706 18.8235C16.4706 19.1355 16.5945 19.4348 16.8152 19.6554C17.0358 19.8761 17.335 20 17.6471 20C17.9591 20 18.2583 19.8761 18.4789 19.6554C18.6996 19.4348 18.8235 19.1355 18.8235 18.8235C18.8218 17.0157 18.2994 15.2465 17.3188 13.7277C16.3383 12.2089 14.941 11.0046 13.2941 10.2588ZM9.41177 9.41177C8.71371 9.41177 8.03134 9.20477 7.45093 8.81695C6.87052 8.42913 6.41815 7.87792 6.15101 7.233C5.88388 6.58808 5.81399 5.87844 5.95017 5.1938C6.08635 4.50916 6.4225 3.88028 6.91609 3.38668C7.40969 2.89309 8.03857 2.55694 8.72321 2.42076C9.40785 2.28457 10.1175 2.35447 10.7624 2.6216C11.4073 2.88873 11.9585 3.34111 12.3464 3.92152C12.7342 4.50193 12.9412 5.1843 12.9412 5.88235C12.9412 6.81841 12.5693 7.71613 11.9074 8.37802C11.2455 9.03992 10.3478 9.41177 9.41177 9.41177ZM23.1882 6.62353C23.0789 6.51326 22.9487 6.42574 22.8054 6.36601C22.662 6.30628 22.5082 6.27553 22.3529 6.27553C22.1976 6.27553 22.0439 6.30628 21.9005 6.36601C21.7571 6.42574 21.627 6.51326 21.5176 6.62353L19.1647 8.97647L18.4353 8.23529C18.3259 8.12502 18.1958 8.0375 18.0524 7.97778C17.9091 7.91805 17.7553 7.8873 17.6 7.8873C17.4447 7.8873 17.2909 7.91805 17.1476 7.97778C17.0042 8.0375 16.8741 8.12502 16.7647 8.23529C16.5456 8.45572 16.4226 8.7539 16.4226 9.06471C16.4226 9.37551 16.5456 9.67369 16.7647 9.89412L18.3412 11.4706C18.5616 11.6897 18.8598 11.8127 19.1706 11.8127C19.4814 11.8127 19.7796 11.6897 20 11.4706L23.1412 8.32941C23.26 8.22273 23.3558 8.09299 23.4228 7.94809C23.4898 7.8032 23.5267 7.64617 23.5311 7.48658C23.5355 7.32699 23.5074 7.16817 23.4484 7.01979C23.3895 6.87142 23.301 6.73659 23.1882 6.62353Z" fill="white"/>
</svg>
