<svg width="31" height="31" viewBox="0 0 31 31" fill="none" xmlns="http://www.w3.org/2000/svg">
    <path d="M19.716 10.5245L13.0665 17.1895L10.509 14.632C10.3701 14.4697 10.1991 14.338 10.0068 14.2449C9.81446 14.1519 9.605 14.0996 9.39154 14.0914C9.17807 14.0831 8.96521 14.1191 8.7663 14.197C8.5674 14.2749 8.38675 14.3931 8.2357 14.5442C8.08464 14.6952 7.96644 14.8759 7.88852 15.0748C7.81059 15.2737 7.77462 15.4866 7.78287 15.7C7.79111 15.9135 7.84339 16.123 7.93643 16.3153C8.02947 16.5076 8.16125 16.6785 8.32351 16.8175L11.966 20.4755C12.1108 20.6192 12.2826 20.7328 12.4714 20.8099C12.6603 20.8871 12.8625 20.9262 13.0665 20.925C13.4731 20.9233 13.8628 20.7619 14.1515 20.4755L21.9015 12.7255C22.0468 12.5814 22.1621 12.41 22.2408 12.2211C22.3195 12.0322 22.36 11.8296 22.36 11.625C22.36 11.4204 22.3195 11.2178 22.2408 11.0289C22.1621 10.84 22.0468 10.6686 21.9015 10.5245C21.6111 10.2358 21.2182 10.0738 20.8088 10.0738C20.3993 10.0738 20.0064 10.2358 19.716 10.5245ZM15.5 0C12.4344 0 9.43763 0.909059 6.88867 2.61222C4.33971 4.31538 2.35303 6.73615 1.17987 9.5684C0.0067159 12.4007 -0.300236 15.5172 0.297835 18.5239C0.895906 21.5306 2.37214 24.2924 4.53985 26.4601C6.70756 28.6279 9.4694 30.1041 12.4761 30.7022C15.4828 31.3002 18.5993 30.9933 21.4316 29.8201C24.2639 28.647 26.6846 26.6603 28.3878 24.1113C30.0909 21.5624 31 18.5656 31 15.5C31 13.4645 30.5991 11.449 29.8201 9.5684C29.0412 7.68786 27.8995 5.97915 26.4602 4.53984C25.0208 3.10054 23.3121 1.95881 21.4316 1.17987C19.5511 0.400919 17.5355 0 15.5 0ZM15.5 27.9C13.0475 27.9 10.6501 27.1727 8.61093 25.8102C6.57176 24.4477 4.98243 22.5111 4.0439 20.2453C3.10537 17.9795 2.85981 15.4862 3.33827 13.0809C3.81673 10.6755 4.99771 8.46605 6.73188 6.73187C8.46605 4.9977 10.6755 3.81672 13.0809 3.33826C15.4862 2.85981 17.9795 3.10537 20.2453 4.04389C22.5111 4.98242 24.4477 6.57176 25.8102 8.61093C27.1728 10.6501 27.9 13.0475 27.9 15.5C27.9 18.7887 26.5936 21.9427 24.2681 24.2681C21.9427 26.5936 18.7887 27.9 15.5 27.9Z" fill="currentColor"/>
</svg>
