<svg width="24" height="20" viewBox="0 0 24 20" fill="none" xmlns="http://www.w3.org/2000/svg">
    <path d="M13.2941 10.2588C13.9219 9.71545 14.4254 9.04339 14.7704 8.28826C15.1155 7.53313 15.2941 6.7126 15.2941 5.88235C15.2941 4.32226 14.6744 2.82606 13.5712 1.7229C12.4681 0.619746 10.9719 0 9.41177 0C7.85167 0 6.35547 0.619746 5.25231 1.7229C4.14916 2.82606 3.52941 4.32226 3.52941 5.88235C3.5294 6.7126 3.708 7.53313 4.05309 8.28826C4.39818 9.04339 4.90167 9.71545 5.52941 10.2588C3.88252 11.0046 2.48525 12.2089 1.50468 13.7277C0.524112 15.2465 0.00173159 17.0157 0 18.8235C0 19.1355 0.123949 19.4348 0.34458 19.6554C0.565211 19.8761 0.864451 20 1.17647 20C1.48849 20 1.78773 19.8761 2.00836 19.6554C2.22899 19.4348 2.35294 19.1355 2.35294 18.8235C2.35294 16.9514 3.09664 15.156 4.42042 13.8322C5.74421 12.5084 7.53965 11.7647 9.41177 11.7647C11.2839 11.7647 13.0793 12.5084 14.4031 13.8322C15.7269 15.156 16.4706 16.9514 16.4706 18.8235C16.4706 19.1355 16.5945 19.4348 16.8152 19.6554C17.0358 19.8761 17.335 20 17.6471 20C17.9591 20 18.2583 19.8761 18.479 19.6554C18.6996 19.4348 18.8235 19.1355 18.8235 18.8235C18.8218 17.0157 18.2994 15.2465 17.3188 13.7277C16.3383 12.2089 14.941 11.0046 13.2941 10.2588ZM9.41177 9.41177C8.71371 9.41177 8.03134 9.20477 7.45093 8.81695C6.87052 8.42914 6.41815 7.87792 6.15101 7.233C5.88388 6.58809 5.81399 5.87844 5.95017 5.1938C6.08635 4.50916 6.4225 3.88028 6.91609 3.38668C7.40969 2.89309 8.03857 2.55694 8.72321 2.42076C9.40785 2.28457 10.1175 2.35447 10.7624 2.6216C11.4073 2.88873 11.9585 3.34111 12.3464 3.92152C12.7342 4.50193 12.9412 5.1843 12.9412 5.88235C12.9412 6.81841 12.5693 7.71613 11.9074 8.37803C11.2455 9.03992 10.3478 9.41177 9.41177 9.41177ZM22.2471 10L23.1882 9.07059C23.2979 8.9609 23.3849 8.83067 23.4443 8.68735C23.5037 8.54403 23.5342 8.39042 23.5342 8.23529C23.5342 8.08017 23.5037 7.92656 23.4443 7.78324C23.3849 7.63992 23.2979 7.50969 23.1882 7.4C23.0785 7.29031 22.9483 7.20329 22.805 7.14393C22.6617 7.08456 22.5081 7.05401 22.3529 7.05401C22.1978 7.05401 22.0442 7.08456 21.9009 7.14393C21.7576 7.20329 21.6273 7.29031 21.5176 7.4L20.5882 8.34118L19.6588 7.4C19.5491 7.29031 19.4189 7.20329 19.2756 7.14393C19.1323 7.08456 18.9787 7.05401 18.8235 7.05401C18.5102 7.05401 18.2098 7.17847 17.9882 7.4C17.8785 7.50969 17.7915 7.63992 17.7322 7.78324C17.6728 7.92656 17.6422 8.08017 17.6422 8.23529C17.6422 8.54859 17.7667 8.84906 17.9882 9.07059L18.9294 10L17.9882 10.9294C17.878 11.0388 17.7904 11.1689 17.7307 11.3123C17.671 11.4556 17.6402 11.6094 17.6402 11.7647C17.6402 11.92 17.671 12.0738 17.7307 12.2171C17.7904 12.3605 17.878 12.4906 17.9882 12.6C18.0976 12.7103 18.2277 12.7978 18.3711 12.8575C18.5145 12.9172 18.6682 12.948 18.8235 12.948C18.9788 12.948 19.1326 12.9172 19.276 12.8575C19.4193 12.7978 19.5495 12.7103 19.6588 12.6L20.5882 11.6588L21.5176 12.6C21.627 12.7103 21.7571 12.7978 21.9005 12.8575C22.0439 12.9172 22.1976 12.948 22.3529 12.948C22.5082 12.948 22.662 12.9172 22.8054 12.8575C22.9487 12.7978 23.0789 12.7103 23.1882 12.6C23.2985 12.4906 23.386 12.3605 23.4458 12.2171C23.5055 12.0738 23.5362 11.92 23.5362 11.7647C23.5362 11.6094 23.5055 11.4556 23.4458 11.3123C23.386 11.1689 23.2985 11.0388 23.1882 10.9294L22.2471 10Z" fill="white"/>
</svg>
