<svg width="22" height="20" viewBox="0 0 22 20" fill="none" xmlns="http://www.w3.org/2000/svg">
    <path fill-rule="evenodd" clip-rule="evenodd" d="M0.45443 2.92553C0.649514 1.25756 2.06273 0 3.74207 0H16.3805C16.5948 0 16.8017 0.0779526 16.9627 0.219311L20.2103 3.07082C20.9404 3.71189 21.3438 4.64716 21.3089 5.61815L20.9042 16.8809C20.8416 18.6214 19.4126 20 17.671 20H3.54125C1.97699 20 0.656368 18.8377 0.457728 17.2861C-0.126387 12.7235 -0.15155 8.10666 0.3828 3.53797L0.45443 2.92553ZM3.74207 1.76471C2.95805 1.76471 2.29827 2.35182 2.20719 3.13054L2.13556 3.74297C1.61789 8.16907 1.64226 12.6418 2.20815 17.062C2.29403 17.7328 2.86497 18.2353 3.54125 18.2353H4.29077V13.2353C4.29077 12.0982 5.21254 11.1765 6.3496 11.1765H14.5849C15.7219 11.1765 16.6437 12.0982 16.6437 13.2353V18.2353H17.671C18.4626 18.2353 19.1122 17.6086 19.1406 16.8175L19.5453 5.55478C19.5612 5.11342 19.3778 4.6883 19.046 4.3969L16.0555 1.77117V4.52938C16.0555 5.66644 15.1337 6.58821 13.9967 6.58821H6.93783C5.80077 6.58821 4.87901 5.66644 4.87901 4.52938V1.76471H3.74207ZM6.64371 1.76471V4.52938C6.64371 4.69182 6.77539 4.8235 6.93783 4.8235H13.9967C14.1591 4.8235 14.2908 4.69182 14.2908 4.52938V1.76471H6.64371ZM14.879 18.2353H6.05548V13.2353C6.05548 13.0729 6.18716 12.9412 6.3496 12.9412H14.5849C14.7473 12.9412 14.879 13.0729 14.879 13.2353V18.2353Z" fill="white"/>
</svg>
