<svg width="21" height="21" viewBox="0 0 21 21" fill="none" xmlns="http://www.w3.org/2000/svg">
    <path fill-rule="evenodd" clip-rule="evenodd" d="M13.1832 14.3766C10.2016 16.7645 5.83728 16.5766 3.0734 13.8127C0.107857 10.8472 0.107857 6.03907 3.0734 3.07352C6.03895 0.107979 10.847 0.10798 13.8126 3.07352C16.5765 5.8374 16.7644 10.2018 14.3764 13.1833L20.1765 18.9834C20.506 19.3129 20.506 19.8471 20.1765 20.1766C19.847 20.5061 19.3128 20.5061 18.9833 20.1766L13.1832 14.3766ZM4.26664 12.6195C1.96011 10.3129 1.96011 6.5733 4.26664 4.26677C6.57318 1.96023 10.3128 1.96023 12.6193 4.26677C14.9242 6.57161 14.9259 10.3074 12.6244 12.6144C12.6227 12.6161 12.621 12.6177 12.6193 12.6194C12.6176 12.6211 12.6159 12.6228 12.6143 12.6245C10.3073 14.926 6.57149 14.9243 4.26664 12.6195Z" fill="black"/>
</svg>
