<svg width="16" height="20" viewBox="0 0 16 20" fill="none" xmlns="http://www.w3.org/2000/svg">
    <path d="M5.6808 0C5.27157 0 4.93983 0.331746 4.93983 0.740974V1.48195H0.740974C0.331746 1.48195 0 1.81369 0 2.22292C0 2.63215 0.331746 2.9639 0.740974 2.9639H14.5725C14.9817 2.9639 15.3135 2.63215 15.3135 2.22292C15.3135 1.81369 14.9817 1.48195 14.5725 1.48195H10.3736V0.740974C10.3736 0.331746 10.0419 0 9.63267 0H5.6808Z" fill="currentColor"/>
    <path d="M5.6808 8.29891C6.09003 8.29891 6.42178 8.63065 6.42178 9.03988L6.42178 15.9556C6.42178 16.3649 6.09003 16.6966 5.6808 16.6966C5.27157 16.6966 4.93983 16.3649 4.93983 15.9556L4.93983 9.03988C4.93983 8.63065 5.27157 8.29891 5.6808 8.29891Z" fill="currentColor"/>
    <path d="M10.3736 9.03988C10.3736 8.63065 10.0419 8.29891 9.63267 8.29891C9.22344 8.29891 8.89169 8.63065 8.89169 9.03988V15.9556C8.89169 16.3649 9.22344 16.6966 9.63267 16.6966C10.0419 16.6966 10.3736 16.3649 10.3736 15.9556V9.03988Z" fill="currentColor"/>
    <path fill-rule="evenodd" clip-rule="evenodd" d="M1.72047 5.59898C1.76216 5.22372 2.07935 4.93983 2.45691 4.93983H12.8565C13.2341 4.93983 13.5513 5.22372 13.593 5.59898L13.7907 7.37864C14.1492 10.6047 14.1492 13.8605 13.7907 17.0865L13.7713 17.2617C13.629 18.5423 12.6365 19.5634 11.3605 19.742C8.90331 20.086 6.41015 20.086 3.95293 19.742C2.67693 19.5634 1.68448 18.5423 1.54219 17.2617L1.52273 17.0865C1.16428 13.8605 1.16428 10.6047 1.52273 7.37864L1.72047 5.59898ZM3.12011 6.42178L2.99561 7.5423C2.64925 10.6596 2.64925 13.8056 2.99561 16.9229L3.01508 17.0981C3.08256 17.7054 3.55324 18.1896 4.1584 18.2744C6.4793 18.5993 8.83416 18.5993 11.1551 18.2744C11.7602 18.1896 12.2309 17.7054 12.2984 17.0981L12.3178 16.9229C12.6642 13.8056 12.6642 10.6596 12.3178 7.5423L12.1933 6.42178H3.12011Z" fill="currentColor"/>
</svg>
